<?xml version="1.0" encoding="UTF-8"?>
<svg width="1361px" height="219px" viewBox="0 0 1361 219" version="1.1" xmlns="http://www.w3.org/2000/svg" xmlns:xlink="http://www.w3.org/1999/xlink">
    <!-- Generator: Sketch 57.1 (83088) - https://sketch.com -->
    <title>Give-Fundraisers-logo</title>
    <desc>Created with Sketch.</desc>
    <g id="Page-1" stroke="none" stroke-width="1" fill="none" fill-rule="evenodd">
        <g id="GIVE-INDIA" transform="translate(-174.000000, -2615.000000)" fill-rule="nonzero">
            <g id="Give-Fundraisers-logo" transform="translate(174.000000, 2615.000000)">
                <g id="Give" transform="translate(196.000000, 0.000000)" fill="#FF5050">
                    <path d="M267.16,208.11 L263.12,208.11 L263.12,179.24 L267.16,179.24 L267.16,208.11 Z M307.16,202.32 L307.24,202.32 L307.24,179.24 L311.28,179.24 L311.28,208.11 L306.18,208.11 L290.93,184.54 L290.85,184.54 L290.85,208.11 L286.81,208.11 L286.81,179.24 L292.07,179.24 L307.16,202.32 Z M330.94,179.24 L340.85,179.24 C342.7,179.24 344.55,179.51 346.4,180.06 C348.25,180.6 349.92,181.46 351.42,182.63 C352.92,183.8 354.13,185.29 355.05,187.12 C355.97,188.94 356.44,191.13 356.44,193.69 C356.44,196.16 355.98,198.3 355.05,200.11 C354.13,201.92 352.92,203.41 351.42,204.6 C349.92,205.78 348.25,206.67 346.4,207.25 C344.55,207.84 342.7,208.13 340.85,208.13 L330.94,208.13 L330.94,179.24 Z M334.98,204.57 L340.04,204.57 C341.78,204.57 343.39,204.33 344.87,203.84 C346.35,203.35 347.63,202.64 348.7,201.72 C349.77,200.8 350.61,199.65 351.21,198.29 C351.81,196.93 352.11,195.39 352.11,193.68 C352.11,191.88 351.81,190.31 351.21,188.95 C350.61,187.59 349.78,186.46 348.7,185.54 C347.62,184.63 346.35,183.94 344.87,183.46 C343.39,182.98 341.78,182.75 340.04,182.75 L334.98,182.75 L334.98,204.57 Z M378.65,208.11 L374.61,208.11 L374.61,179.24 L378.65,179.24 L378.65,208.11 Z M399.49,208.11 L395,208.11 L407.52,179.24 L411.19,179.24 L423.59,208.11 L419.02,208.11 L416.08,201.01 L402.38,201.01 L399.49,208.11 Z M403.81,197.47 L414.62,197.47 L409.24,183.93 L403.81,197.47 Z" id="INDIA"></path>
                    <g id="Group">
                        <path d="M111.15,53.61 C108.95,51.45 105.86,50.38 101.88,50.38 C94.66,50.38 87.53,54.36 80.47,62.33 C72.09,53.62 60.97,49.26 47.12,49.26 C35.92,49.26 26.23,52.89 18.06,60.15 C9.89,67.41 5.8,76.23 5.8,86.6 C5.8,93.98 7.79,100.66 11.77,106.64 C15.75,112.61 21.68,117.93 29.57,122.57 C14.39,125.39 6.79,132.24 6.79,143.1 C6.79,148.74 9.44,153.35 14.75,156.91 C20.06,160.56 31.63,162.76 49.47,163.51 C64.98,164.17 75.77,166.16 81.83,169.48 C87.89,172.88 90.92,178.73 90.92,187.03 C90.92,194.58 87.54,200.78 80.78,205.64 C74.02,210.49 64.58,212.92 52.47,212.92 C38.86,212.92 28.64,210.54 21.79,205.76 C14.95,200.99 11.52,194.95 11.52,187.65 C11.52,181.34 14.09,175.37 19.23,169.73 C18.15,169.32 16.95,169.11 15.62,169.11 C10.72,169.11 6.95,170.73 4.29,173.96 C1.64,177.19 0.31,181.34 0.31,186.4 C0.31,195.53 4.96,203.08 14.25,209.05 C23.54,215.02 35.9,218.01 51.34,218.01 C68.18,218.01 81.08,214.65 90.04,207.93 C99,201.21 103.48,192.37 103.48,181.42 C103.48,173.62 101.28,166.9 96.89,161.26 C92.49,155.62 86.6,151.86 79.22,150 C71.84,148.13 61.3,146.87 47.61,146.2 C35.08,145.54 26.87,144.54 22.97,143.21 C18.99,141.96 17,139.81 17,136.74 C17,130.19 25.79,126.62 43.38,126.04 C60.31,125.46 72.33,121.31 79.47,113.6 C86.61,105.97 90.17,97.17 90.17,87.22 C90.17,79.59 88.01,72.37 83.7,65.57 C87.52,61.26 91,59.1 94.15,59.1 C96.14,59.1 98.05,60.68 99.88,63.83 C101.87,67.23 104.23,68.93 106.97,68.93 C111.95,68.93 114.440135,66.19 114.440135,60.72 C114.45,58.14 113.35,55.77 111.15,53.61 Z M64.11,113.04 C59.59,117.98 54.17,120.45 47.87,120.45 C41.07,120.45 35.46,117.96 31.07,112.98 C26.67,108 24.47,100.16 24.47,89.46 C24.47,77.93 26.38,69.3 30.19,63.57 C34.01,57.84 39.73,54.98 47.36,54.98 C53.42,54.98 58.85,57.3 63.66,61.95 C68.47,66.6 70.8800658,75.06 70.8800658,87.34 C70.89,99.53 68.63,108.1 64.11,113.04 Z" id="Shape"></path>
                        <path d="M171.42,49.26 L171.42,120.32 C171.42,131.19 171.59,138.03 171.92,140.85 C172.25,143.67 173.45,145.83 175.53,147.32 C177.6,148.81 181.3,149.56 186.61,149.56 L189.22,149.56 L189.22,155.28 L134.34,155.28 L134.34,149.56 L138.57,149.56 C144.46,149.56 148.3,148.71 150.08,147.01 C151.86,145.31 152.9,143.28 153.19,140.91 C153.48,138.54 153.63,131.68 153.63,120.31 L153.63,89.45 C153.63,77.5 153.07,70.2 151.95,67.55 C150.83,64.9 149.34,63.24 147.47,62.57 C145.61,61.91 142.35,61.57 137.7,61.57 L134.34,61.57 L134.34,55.85 C149.11,54.36 160.56,52.16 168.69,49.25 L171.42,49.25 L171.42,49.26 Z" id="XMLID_52_"></path>
                        <path d="M262.45,159.4 L255.23,159.4 L219.01,77.64 C215.44,69.76 212.62,64.74 210.55,62.58 C208.47,60.42 205.07,59.26 200.35,59.1 L200.35,53.37 L246.4,53.37 L246.4,59.1 C241.34,59.1 237.87,59.51 236.01,60.34 C234.14,61.17 233.21,62.75 233.21,65.07 C233.21,66.9 234.87,71.33 238.19,78.39 L265.69,140.24 L290.46,85.11 C294.36,76.32 296.31,70.59 296.31,67.94 C296.31,62.38 292.16,59.44 283.87,59.11 L283.87,53.38 L318.22,53.38 L318.22,59.11 C313.99,59.36 310.44,61.12 307.58,64.4 C304.72,67.68 300.71,75.04 295.57,86.49 L262.45,159.4 Z" id="XMLID_51_"></path>
                        <path d="M386.5,152.68 C375.38,152.68 367.02,148.18 361.42,139.18 C355.82,130.18 353.02,116.72 353.02,98.79 C353.02,96.38 353.19,92.74 353.52,87.84 L424.58,87.84 C424.16,78.38 420.31,69.59 413.01,61.46 C405.71,53.33 395.38,49.26 382.02,49.26 C367.83,49.26 356.01,54.59 346.55,65.25 C337.09,75.91 332.36,89.29 332.36,105.39 C332.36,116.76 334.81,126.42 339.7,134.39 C344.6,142.35 350.88,148.52 358.56,152.87 C366.23,157.23 374.38,159.4 383.01,159.4 C392.3,159.4 400.89,157.01 408.77,152.24 C416.65,147.47 421.92,140.85 424.57,132.39 L418.6,132.39 C412.31,145.91 401.6,152.68 386.5,152.68 Z M381.03,54.73 C387.25,54.73 392.5,56.74 396.77,60.77 C401.04,64.8 403.18,70.46 403.18,77.76 C403.18,79.25 403.06,80.96 402.81,82.86 L354.03,82.86 C356.93,64.11 365.93,54.73 381.03,54.73 Z" id="Shape"></path>
                        <circle id="Oval" cx="159.85" cy="10.38" r="10.08"></circle>
                    </g>
                </g>
                <g id="Device" transform="translate(0.000000, 19.500000)">
                    <polygon id="Path" fill="#964D4F" points="116.04 67.36 77.42 45.06 77.42 89.65"></polygon>
                    <polygon id="Path" fill="#F2D1D1" points="116.04 111.95 77.42 89.65 77.42 134.25"></polygon>
                    <polygon id="Path" fill="#EF5253" points="154.66 89.65 116.04 67.36 116.04 111.95"></polygon>
                    <polygon id="Path" fill="#F16F6F" points="77.42 89.65 116.04 67.36 116.04 111.95"></polygon>
                    <polygon id="Path" fill="#F16F6F" points="38.8 111.95 0.18 89.65 0.18 134.25"></polygon>
                    <polygon id="Path" fill="#F16F6F" points="77.42 89.65 38.8 67.36 38.8 111.95"></polygon>
                    <polygon id="Path" fill="#EF5253" points="0.18 89.65 38.8 67.36 38.8 111.95"></polygon>
                    <polygon id="Path" fill="#964D4F" points="38.8 22.76 0.18 0.46 0.18 45.06"></polygon>
                    <polygon id="Path" fill="#EF5253" points="77.42 45.06 38.8 22.76 38.8 67.36"></polygon>
                    <polygon id="Path" fill="#EF5253" points="77.42 134.25 38.8 111.95 38.8 156.55"></polygon>
                    <polygon id="Path" fill="#964D4F" points="38.8 156.55 0.18 134.25 0.18 178.85"></polygon>
                    <polygon id="Path" fill="#F2D1D1" points="38.8 67.36 77.42 45.06 77.42 89.65"></polygon>
                    <polygon id="Path" fill="#964D4F" points="38.8 111.95 77.42 89.65 77.42 134.25"></polygon>
                    <polygon id="Path" fill="#F2D1D1" points="0.18 134.25 38.8 111.95 38.8 156.55"></polygon>
                    <polygon id="Path" fill="#F16F6F" points="0.18 45.06 38.8 22.76 38.8 67.36"></polygon>
                </g>
                <g id="Fundraisers" transform="translate(669.000000, 20.500000)">
                    <rect id="Rectangle" fill="#444444" x="0" y="0" width="4" height="158"></rect>
                    <path d="M70.578,135 L61.002,135 L61.002,40.836 L117.793,40.836 L117.793,49.348 L70.578,49.348 L70.578,82.066 L114.468,82.066 L114.468,90.445 L70.578,90.445 L70.578,135 Z M169.6,135 C169.422666,133.315325 169.289667,131.453344 169.201,129.414 C169.112333,127.374656 169.068,125.690007 169.068,124.36 L168.802,124.36 C167.028658,127.995352 164.14702,130.943489 160.157,133.2045 C156.16698,135.465511 151.955355,136.596 147.522,136.596 C139.630627,136.596 133.712186,134.246357 129.7665,129.547 C125.820814,124.847643 123.848,118.641039 123.848,110.927 L123.848,72.756 L132.892,72.756 L132.892,107.203 C132.892,110.483683 133.157997,113.453987 133.69,116.114 C134.222003,118.774013 135.130827,121.057157 136.4165,122.9635 C137.702173,124.869843 139.431156,126.354995 141.6035,127.419 C143.775844,128.483005 146.502317,129.015 149.783,129.015 C152.177012,129.015 154.504489,128.527338 156.7655,127.552 C159.026511,126.576662 161.043658,125.09151 162.817,123.0965 C164.590342,121.10149 166.008995,118.574515 167.073,115.5155 C168.137005,112.456485 168.669,108.843354 168.669,104.676 L168.669,72.756 L177.713,72.756 L177.713,121.301 C177.713,122.985675 177.757333,125.157987 177.846,127.818 C177.934667,130.478013 178.067666,132.871989 178.245,135 L169.6,135 Z M204.516,72.756 C204.693334,74.4406751 204.826333,76.3026565 204.915,78.342 C205.003667,80.3813435 205.048,82.0659933 205.048,83.396 L205.314,83.396 C207.087342,79.7606485 209.96898,76.8125113 213.959,74.5515 C217.94902,72.2904887 222.160644,71.16 226.594,71.16 C234.485373,71.16 240.403814,73.5096432 244.3495,78.209 C248.295186,82.9083568 250.268,89.1149614 250.268,96.829 L250.268,135 L241.224,135 L241.224,100.553 C241.224,97.2723169 240.958003,94.3020133 240.426,91.642 C239.893997,88.9819867 238.985173,86.6988429 237.6995,84.7925 C236.413827,82.8861571 234.684844,81.4010053 232.5125,80.337 C230.340156,79.2729947 227.613683,78.741 224.333,78.741 C221.938988,78.741 219.611511,79.2286618 217.3505,80.204 C215.089489,81.1793382 213.072342,82.66449 211.299,84.6595 C209.525658,86.65451 208.107005,89.1814847 207.043,92.2405 C205.978995,95.2995153 205.447,98.9126458 205.447,103.08 L205.447,135 L196.403,135 L196.403,86.455 C196.403,84.7703249 196.358667,82.5980133 196.27,79.938 C196.181333,77.2779867 196.048334,74.8840106 195.871,72.756 L204.516,72.756 Z M319.631,124.493 C316.970987,128.48302 313.513021,131.497656 309.257,133.537 C305.000979,135.576344 300.612023,136.596 296.09,136.596 C291.213309,136.596 286.802186,135.753675 282.8565,134.069 C278.910814,132.384325 275.541514,130.079015 272.7485,127.153 C269.955486,124.226985 267.783174,120.76902 266.2315,116.779 C264.679826,112.78898 263.904,108.48869 263.904,103.878 C263.904,99.2673103 264.679826,94.9670199 266.2315,90.977 C267.783174,86.98698 269.955486,83.5290146 272.7485,80.603 C275.541514,77.6769854 278.910814,75.3716751 282.8565,73.687 C286.802186,72.0023249 291.213309,71.16 296.09,71.16 C300.612023,71.16 305.000979,72.2018229 309.257,74.2855 C313.513021,76.3691771 316.970987,79.4503129 319.631,83.529 L319.897,83.529 L319.897,34.452 L328.941,34.452 L328.941,135 L319.897,135 L319.897,124.493 L319.631,124.493 Z M273.48,103.878 C273.48,107.336017 274.011995,110.594485 275.076,113.6535 C276.140005,116.712515 277.66949,119.372489 279.6645,121.6335 C281.65951,123.894511 284.119985,125.667827 287.046,126.9535 C289.972015,128.239173 293.296981,128.882 297.021,128.882 C300.479017,128.882 303.670985,128.239173 306.597,126.9535 C309.523015,125.667827 312.049989,123.916678 314.178,121.7 C316.306011,119.483322 317.968494,116.845515 319.1655,113.7865 C320.362506,110.727485 320.961,107.424684 320.961,103.878 C320.961,100.331316 320.362506,97.0285153 319.1655,93.9695 C317.968494,90.9104847 316.306011,88.2505113 314.178,85.9895 C312.049989,83.7284887 309.523015,81.9551731 306.597,80.6695 C303.670985,79.3838269 300.479017,78.741 297.021,78.741 C293.296981,78.741 289.972015,79.4059933 287.046,80.736 C284.119985,82.0660066 281.65951,83.8614887 279.6645,86.1225 C277.66949,88.3835113 276.140005,91.0434847 275.076,94.1025 C274.011995,97.1615153 273.48,100.419983 273.48,103.878 Z M347.897,86.455 C347.897,84.7703249 347.852667,82.5980133 347.764,79.938 C347.675333,77.2779867 347.542334,74.8840106 347.365,72.756 L356.01,72.756 C356.187334,74.4406751 356.320333,76.3026565 356.409,78.342 C356.497667,80.3813435 356.542,82.0659933 356.542,83.396 L356.808,83.396 C358.581342,79.7606485 361.241316,76.8125113 364.788,74.5515 C368.334684,72.2904887 372.324645,71.16 376.758,71.16 C377.910672,71.16 378.952495,71.2043329 379.8835,71.293 C380.814505,71.3816671 381.767662,71.5589987 382.743,71.825 L381.546,80.337 C381.013997,80.1596658 380.12734,79.9823342 378.886,79.805 C377.64466,79.6276658 376.40334,79.539 375.162,79.539 C372.767988,79.539 370.462678,79.9823289 368.246,80.869 C366.029322,81.7556711 364.100842,83.1521571 362.4605,85.0585 C360.820158,86.9648429 359.490172,89.4031518 358.4705,92.3735 C357.450828,95.3438482 356.941,98.9126458 356.941,103.08 L356.941,135 L347.897,135 L347.897,86.455 Z M428.166,94.834 C428.166,89.4253063 426.747348,85.3910133 423.91,82.731 C421.072652,80.0709867 416.949694,78.741 411.541,78.741 C407.816981,78.741 404.359016,79.4059934 401.167,80.736 C397.974984,82.0660066 395.270678,83.8393222 393.054,86.056 L388,80.071 C390.571346,77.4996538 393.962812,75.3716751 398.1745,73.687 C402.386188,72.0023249 407.151973,71.16 412.472,71.16 C415.84135,71.16 418.988985,71.6254953 421.915,72.5565 C424.841015,73.4875047 427.412322,74.8839907 429.629,76.746 C431.845678,78.6080093 433.57466,80.9576525 434.816,83.795 C436.05734,86.6323475 436.678,89.9573143 436.678,93.77 L436.678,121.035 C436.678,123.429012 436.766666,125.911654 436.944,128.483 C437.121334,131.054346 437.387332,133.226658 437.742,135 L429.629,135 C429.362999,133.492659 429.141334,131.852342 428.964,130.079 C428.786666,128.305658 428.698,126.576675 428.698,124.892 L428.432,124.892 C425.594652,129.059354 422.380518,132.051824 418.7895,133.8695 C415.198482,135.687176 410.876025,136.596 405.822,136.596 C403.427988,136.596 400.967513,136.263503 398.4405,135.5985 C395.913487,134.933497 393.608177,133.847341 391.5245,132.34 C389.440823,130.832659 387.71184,128.882012 386.3375,126.488 C384.96316,124.093988 384.276,121.168017 384.276,117.71 C384.276,112.921976 385.495154,109.131514 387.9335,106.3385 C390.371846,103.545486 393.630313,101.46184 397.709,100.0875 C401.787687,98.7131598 406.464807,97.826502 411.7405,97.4275 C417.016193,97.028498 422.491305,96.829 428.166,96.829 L428.166,94.834 Z M425.506,103.878 C421.781981,103.878 418.035852,104.033165 414.2675,104.3435 C410.499148,104.653835 407.085515,105.274495 404.0265,106.2055 C400.967485,107.136505 398.462676,108.488658 396.512,110.262 C394.561324,112.035342 393.586,114.384985 393.586,117.311 C393.586,119.527678 394.007162,121.389659 394.8495,122.897 C395.691838,124.404341 396.822326,125.623495 398.241,126.5545 C399.659674,127.485505 401.233491,128.150498 402.9625,128.5495 C404.691509,128.948502 406.442658,129.148 408.216,129.148 C411.408016,129.148 414.245321,128.593839 416.728,127.4855 C419.210679,126.377161 421.294325,124.869843 422.979,122.9635 C424.663675,121.057157 425.949329,118.862679 426.836,116.38 C427.722671,113.897321 428.166,111.28168 428.166,108.533 L428.166,103.878 L425.506,103.878 Z M463.88,135 L454.836,135 L454.836,72.756 L463.88,72.756 L463.88,135 Z M465.742,48.816 C465.742,50.6780093 465.077007,52.207494 463.747,53.4045 C462.416993,54.601506 460.954008,55.2 459.358,55.2 C457.761992,55.2 456.299007,54.601506 454.969,53.4045 C453.638993,52.207494 452.974,50.6780093 452.974,48.816 C452.974,46.9539907 453.638993,45.424506 454.969,44.2275 C456.299007,43.030494 457.761992,42.432 459.358,42.432 C460.954008,42.432 462.416993,43.030494 463.747,44.2275 C465.077007,45.424506 465.742,46.9539907 465.742,48.816 Z M515.82,87.519 C514.489993,84.9476538 512.472847,82.8418415 509.7685,81.2015 C507.064153,79.5611585 503.983017,78.741 500.525,78.741 C498.928992,78.741 497.333008,78.9183316 495.737,79.273 C494.140992,79.6276684 492.72234,80.203996 491.481,81.002 C490.23966,81.800004 489.24217,82.8196605 488.4885,84.061 C487.73483,85.3023395 487.358,86.7653249 487.358,88.45 C487.358,91.3760146 488.554988,93.6148256 490.949,95.1665 C493.343012,96.7181744 497.111308,98.0259947 502.254,99.09 C509.61337,100.597341 515.044149,102.791819 518.5465,105.6735 C522.048851,108.555181 523.8,112.434309 523.8,117.311 C523.8,120.857684 523.11284,123.850154 521.7385,126.2885 C520.36416,128.726846 518.568678,130.721826 516.352,132.2735 C514.135322,133.825174 511.630514,134.933497 508.8375,135.5985 C506.044486,136.263503 503.229348,136.596 500.392,136.596 C495.692643,136.596 491.126356,135.620676 486.693,133.67 C482.259645,131.719324 478.624348,128.660354 475.787,124.493 L482.969,119.173 C484.565008,121.92168 486.914651,124.226991 490.018,126.089 C493.121349,127.951009 496.534981,128.882 500.259,128.882 C502.209676,128.882 504.071658,128.704668 505.845,128.35 C507.618342,127.995332 509.169993,127.374671 510.5,126.488 C511.830007,125.601329 512.893996,124.47084 513.692,123.0965 C514.490004,121.72216 514.889,120.015344 514.889,117.976 C514.889,114.695317 513.315182,112.234842 510.1675,110.5945 C507.019818,108.954158 502.475696,107.424674 496.535,106.006 C494.672991,105.562664 492.700177,105.008503 490.6165,104.3435 C488.532823,103.678497 486.604342,102.703173 484.831,101.4175 C483.057658,100.131827 481.594672,98.5136764 480.442,96.563 C479.289328,94.6123236 478.713,92.1740146 478.713,89.248 C478.713,86.055984 479.33366,83.3295113 480.575,81.0685 C481.81634,78.8074887 483.478823,76.9455073 485.5625,75.4825 C487.646177,74.0194927 490.017987,72.9333369 492.678,72.224 C495.338013,71.5146631 498.086652,71.16 500.924,71.16 C505.268688,71.16 509.480313,72.1353236 513.559,74.086 C517.637687,76.0366764 520.696656,78.7853156 522.736,82.332 L515.82,87.519 Z M583.986,99.09 C583.719999,93.2379707 581.835851,88.3835193 578.3335,84.5265 C574.831149,80.6694807 569.843699,78.741 563.371,78.741 C560.356318,78.741 557.563346,79.2951611 554.992,80.4035 C552.420654,81.5118389 550.159676,83.0191571 548.209,84.9255 C546.258324,86.8318429 544.706672,89.0041545 543.554,91.4425 C542.401328,93.8808455 541.736334,96.4299867 541.559,99.09 L583.986,99.09 Z M593.163,102.016 L593.163,104.011 C593.163,104.720337 593.118667,105.473996 593.03,106.272 L541.426,106.272 C541.514667,109.375349 542.135328,112.30132 543.288,115.05 C544.440672,117.79868 546.036656,120.192656 548.076,122.232 C550.115344,124.271344 552.50932,125.889494 555.258,127.0865 C558.00668,128.283506 560.976984,128.882 564.169,128.882 C568.868357,128.882 572.924816,127.795844 576.3385,125.6235 C579.752184,123.451156 582.345658,120.946348 584.119,118.109 L590.902,123.429 C587.177981,128.128357 583.077189,131.497656 578.5995,133.537 C574.121811,135.576344 569.311692,136.596 564.169,136.596 C559.55831,136.596 555.280186,135.775842 551.3345,134.1355 C547.388814,132.495158 543.997348,130.212015 541.16,127.286 C538.322652,124.359985 536.083842,120.90202 534.4435,116.912 C532.803158,112.92198 531.983,108.577357 531.983,103.878 C531.983,99.1786432 532.780992,94.8340199 534.377,90.844 C535.973008,86.85398 538.189652,83.3960146 541.027,80.47 C543.864348,77.5439854 547.189314,75.2608415 551.002,73.6205 C554.814686,71.9801585 558.937644,71.16 563.371,71.16 C568.247691,71.16 572.547981,71.9801585 576.272,73.6205 C579.996019,75.2608415 583.099321,77.477486 585.582,80.2705 C588.064679,83.063514 589.948827,86.3219814 591.2345,90.046 C592.520173,93.7700186 593.163,97.7599787 593.163,102.016 Z M607.331,86.455 C607.331,84.7703249 607.286667,82.5980133 607.198,79.938 C607.109333,77.2779867 606.976334,74.8840106 606.799,72.756 L615.444,72.756 C615.621334,74.4406751 615.754333,76.3026565 615.843,78.342 C615.931667,80.3813435 615.976,82.0659933 615.976,83.396 L616.242,83.396 C618.015342,79.7606485 620.675316,76.8125113 624.222,74.5515 C627.768684,72.2904887 631.758644,71.16 636.192,71.16 C637.344672,71.16 638.386495,71.2043329 639.3175,71.293 C640.248505,71.3816671 641.201662,71.5589987 642.177,71.825 L640.98,80.337 C640.447997,80.1596658 639.56134,79.9823342 638.32,79.805 C637.07866,79.6276658 635.83734,79.539 634.596,79.539 C632.201988,79.539 629.896678,79.9823289 627.68,80.869 C625.463322,81.7556711 623.534842,83.1521571 621.8945,85.0585 C620.254158,86.9648429 618.924172,89.4031518 617.9045,92.3735 C616.884828,95.3438482 616.375,98.9126458 616.375,103.08 L616.375,135 L607.331,135 L607.331,86.455 Z M683.078,87.519 C681.747993,84.9476538 679.730847,82.8418415 677.0265,81.2015 C674.322153,79.5611585 671.241017,78.741 667.783,78.741 C666.186992,78.741 664.591008,78.9183316 662.995,79.273 C661.398992,79.6276684 659.98034,80.203996 658.739,81.002 C657.49766,81.800004 656.50017,82.8196605 655.7465,84.061 C654.99283,85.3023395 654.616,86.7653249 654.616,88.45 C654.616,91.3760146 655.812988,93.6148256 658.207,95.1665 C660.601012,96.7181744 664.369308,98.0259947 669.512,99.09 C676.87137,100.597341 682.302149,102.791819 685.8045,105.6735 C689.306851,108.555181 691.058,112.434309 691.058,117.311 C691.058,120.857684 690.37084,123.850154 688.9965,126.2885 C687.62216,128.726846 685.826678,130.721826 683.61,132.2735 C681.393322,133.825174 678.888514,134.933497 676.0955,135.5985 C673.302486,136.263503 670.487348,136.596 667.65,136.596 C662.950643,136.596 658.384356,135.620676 653.951,133.67 C649.517645,131.719324 645.882348,128.660354 643.045,124.493 L650.227,119.173 C651.823008,121.92168 654.172651,124.226991 657.276,126.089 C660.379349,127.951009 663.792981,128.882 667.517,128.882 C669.467676,128.882 671.329658,128.704668 673.103,128.35 C674.876342,127.995332 676.427993,127.374671 677.758,126.488 C679.088007,125.601329 680.151996,124.47084 680.95,123.0965 C681.748004,121.72216 682.147,120.015344 682.147,117.976 C682.147,114.695317 680.573182,112.234842 677.4255,110.5945 C674.277818,108.954158 669.733696,107.424674 663.793,106.006 C661.930991,105.562664 659.958177,105.008503 657.8745,104.3435 C655.790823,103.678497 653.862342,102.703173 652.089,101.4175 C650.315658,100.131827 648.852672,98.5136764 647.7,96.563 C646.547328,94.6123236 645.971,92.1740146 645.971,89.248 C645.971,86.055984 646.59166,83.3295113 647.833,81.0685 C649.07434,78.8074887 650.736823,76.9455073 652.8205,75.4825 C654.904177,74.0194927 657.275987,72.9333369 659.936,72.224 C662.596013,71.5146631 665.344652,71.16 668.182,71.16 C672.526688,71.16 676.738313,72.1353236 680.817,74.086 C684.895687,76.0366764 687.954656,78.7853156 689.994,82.332 L683.078,87.519 Z" fill="#4A4949"></path>
                </g>
            </g>
        </g>
    </g>
</svg>